<?xml version="1.0" encoding="utf-8"?>
<svg xmlns="http://www.w3.org/2000/svg" height="512pt" version="1.1" viewBox="0 0 512 512" width="512pt">
<path d="M 0.00 0.00 L 512.00 0.00 L 512.00 512.00 L 0.00 512.00 L 0.00 0.00 Z" fill="#f9e0a5" opacity="1.00" stroke="#f9e0a5" stroke-width="0.25"/>
<path d="M 154.83 196.72 C 179.96 187.09 209.78 188.58 232.72 203.20 C 241.93 208.85 248.91 217.73 252.64 227.84 C 258.62 224.60 264.95 221.86 271.68 220.66 C 285.57 219.04 299.52 221.49 312.91 225.15 C 326.66 229.13 339.82 234.94 352.46 241.62 C 353.70 242.41 355.27 242.58 356.55 241.74 C 365.14 237.27 373.92 233.15 382.40 228.47 C 396.27 221.33 409.34 212.77 422.55 204.50 C 427.44 201.12 432.74 198.30 437.21 194.35 C 437.52 194.75 438.13 195.57 438.44 195.98 C 438.52 199.59 438.61 203.27 437.61 206.78 C 435.93 213.02 434.35 219.46 430.72 224.91 C 433.40 224.46 436.03 223.75 438.64 222.99 C 438.85 230.33 436.53 237.42 434.18 244.28 C 428.59 258.39 419.48 271.24 407.57 280.70 C 411.47 280.78 414.76 278.57 418.25 277.18 C 421.78 275.71 425.34 274.30 428.84 272.76 C 431.71 271.50 434.67 270.39 437.82 270.10 C 434.67 286.97 424.52 302.26 410.58 312.16 C 406.41 315.18 402.01 318.04 397.00 319.44 C 405.98 320.12 415.04 319.63 423.97 318.51 C 423.61 320.67 422.81 322.73 421.45 324.46 C 416.31 331.54 410.05 337.81 403.20 343.24 C 394.18 349.82 384.47 355.82 373.59 358.75 C 365.20 361.06 356.50 362.81 347.76 362.51 C 366.24 365.56 384.88 360.77 403.43 362.80 C 402.85 363.08 401.70 363.64 401.12 363.92 C 398.33 366.65 394.84 368.48 391.55 370.52 C 369.42 383.77 345.13 393.38 320.04 399.24 C 317.01 399.87 313.97 400.43 310.89 400.77 L 310.16 401.26 C 301.48 402.29 292.82 403.90 284.05 403.65 C 267.14 404.33 250.32 401.34 234.07 396.85 C 232.08 396.18 230.08 395.52 228.09 394.85 C 209.54 388.77 192.61 378.65 176.99 367.09 C 163.70 356.54 150.94 344.59 142.90 329.44 C 146.33 329.43 149.74 329.07 153.10 328.41 C 155.24 328.08 157.37 327.67 159.51 327.34 L 159.51 326.69 C 161.17 326.23 162.83 325.76 164.49 325.31 L 164.55 324.23 C 164.92 324.32 165.64 324.49 166.01 324.58 C 172.76 320.34 179.48 315.61 183.93 308.83 C 184.64 307.89 185.35 306.94 186.06 305.99 C 187.87 302.74 189.43 299.36 190.87 295.94 C 194.40 285.06 195.94 273.17 192.83 262.00 C 192.29 259.85 191.76 257.69 191.28 255.53 L 190.84 255.49 C 186.84 243.93 178.36 233.78 167.00 228.90 C 161.23 225.91 154.68 225.63 148.41 224.51 L 148.62 225.36 C 143.85 225.23 139.13 225.81 134.45 226.68 L 134.42 227.79 C 134.09 227.69 133.43 227.49 133.10 227.40 C 132.06 228.00 130.98 228.53 129.87 228.99 C 128.43 229.67 126.99 230.34 125.53 230.96 C 125.53 231.30 125.52 231.99 125.51 232.33 C 124.92 232.42 123.73 232.60 123.14 232.69 C 121.40 234.58 119.60 236.42 117.88 238.33 C 116.94 239.24 115.96 240.11 115.00 240.99 C 113.90 243.38 112.12 245.31 110.35 247.22 C 112.95 235.02 119.03 223.64 127.54 214.54 C 135.28 206.79 144.68 200.83 154.83 196.72 Z" fill="#11b0e1" opacity="1.00" stroke="#11b0e1" stroke-width="0.25"/>
<path d="M 134.45 226.68 C 139.13 225.81 143.85 225.23 148.62 225.36 L 148.41 224.51 C 154.68 225.63 161.23 225.91 167.00 228.90 C 178.36 233.78 186.84 243.93 190.84 255.49 L 191.28 255.53 C 191.76 257.69 192.29 259.85 192.83 262.00 C 195.94 273.17 194.40 285.06 190.87 295.94 C 189.43 299.36 187.87 302.74 186.06 305.99 C 185.35 306.94 184.64 307.89 183.93 308.83 C 179.48 315.61 172.76 320.34 166.01 324.58 C 165.64 324.49 164.92 324.32 164.55 324.23 L 164.49 325.31 C 162.83 325.76 161.17 326.23 159.51 326.69 L 159.51 327.34 C 157.37 327.67 155.24 328.08 153.10 328.41 C 149.07 327.96 145.04 327.62 140.98 327.71 C 136.62 327.79 132.63 325.73 128.85 323.79 C 116.20 317.22 107.53 303.06 108.24 288.73 C 99.94 284.26 91.22 280.64 82.81 276.40 C 77.76 273.77 72.29 271.96 67.57 268.75 C 80.35 264.47 93.73 262.05 106.34 257.24 C 109.34 256.33 109.46 252.93 109.97 250.37 C 112.61 246.36 115.33 242.40 117.88 238.33 C 119.60 236.42 121.40 234.58 123.14 232.69 C 123.73 232.60 124.92 232.42 125.51 232.33 C 125.52 231.99 125.53 231.30 125.53 230.96 C 126.99 230.34 128.43 229.67 129.87 228.99 C 130.98 228.53 132.06 228.00 133.10 227.40 C 133.43 227.49 134.09 227.69 134.42 227.79 L 134.45 226.68 Z" fill="#fdc10c" opacity="1.00" stroke="#fdc10c" stroke-width="0.25"/>
<path d="M 146.07 251.90 C 155.28 249.20 166.18 256.25 166.54 266.06 C 167.94 275.34 159.46 284.78 149.98 283.74 C 140.18 284.17 131.96 273.67 134.29 264.27 C 135.51 258.37 140.36 253.56 146.07 251.90 Z" fill="#221f32" opacity="1.00" stroke="#221f32" stroke-width="0.25"/>
<path d="M 254.47 270.54 L 254.53 269.61 C 257.52 269.64 260.52 269.64 263.51 269.61 L 263.51 270.41 C 265.24 270.42 266.98 270.46 268.72 270.48 L 268.25 271.26 C 270.41 271.62 272.54 272.14 274.68 272.63 L 274.40 273.80 C 274.92 273.68 275.97 273.43 276.50 273.30 L 276.21 274.73 L 276.99 274.52 C 277.63 274.83 278.93 275.45 279.58 275.76 L 279.39 276.65 C 279.92 276.62 280.99 276.54 281.52 276.50 C 281.49 277.02 281.41 278.07 281.38 278.59 C 281.93 278.55 283.02 278.47 283.57 278.43 C 283.55 278.95 283.50 279.99 283.48 280.51 C 284.00 280.50 285.05 280.47 285.57 280.45 C 285.52 280.98 285.43 282.05 285.39 282.59 C 285.94 282.56 287.03 282.50 287.58 282.48 C 287.51 282.98 287.38 284.00 287.32 284.50 L 288.74 284.55 C 288.61 285.05 288.36 286.03 288.23 286.52 L 289.77 286.31 L 289.32 287.78 L 290.81 287.47 C 290.66 288.00 290.36 289.04 290.21 289.56 L 291.55 289.28 C 291.53 290.13 291.48 291.83 291.46 292.67 L 292.36 292.33 C 293.37 295.80 293.87 299.39 293.79 303.01 C 293.72 314.19 293.97 325.37 293.60 336.55 C 293.05 336.47 291.96 336.31 291.41 336.22 L 291.53 337.49 C 290.77 337.50 289.25 337.54 288.49 337.55 L 288.43 338.81 C 287.94 338.64 286.96 338.31 286.46 338.15 L 286.63 339.26 C 284.17 339.67 281.75 340.26 279.30 340.69 L 279.65 341.45 C 273.16 341.73 266.57 342.08 260.26 340.24 L 260.77 339.51 C 259.31 339.50 257.85 339.49 256.39 339.48 L 256.55 338.14 C 256.06 338.27 255.08 338.53 254.59 338.66 L 254.40 337.19 C 253.91 337.36 252.95 337.69 252.46 337.85 L 252.76 336.62 C 251.36 336.12 249.96 335.61 248.56 335.14 C 248.55 334.76 248.53 334.01 248.51 333.64 C 247.47 333.60 245.38 333.51 244.33 333.47 L 244.62 334.54 C 244.02 334.52 242.83 334.47 242.24 334.45 C 242.37 333.97 242.63 333.00 242.77 332.52 L 241.33 332.51 C 241.41 331.99 241.55 330.94 241.62 330.42 C 241.13 330.45 240.15 330.50 239.66 330.53 C 239.57 328.77 239.48 327.00 239.40 325.25 L 237.56 325.56 C 237.87 325.20 238.49 324.49 238.81 324.14 C 237.64 323.20 236.44 322.32 235.24 321.45 L 235.50 320.29 C 235.02 320.36 234.04 320.50 233.56 320.57 C 233.57 320.02 233.58 318.93 233.59 318.38 L 232.14 318.53 C 232.30 318.03 232.62 317.02 232.78 316.52 L 231.10 316.50 L 231.83 314.25 L 229.54 316.18 C 229.91 315.52 230.65 314.19 231.02 313.53 L 229.37 313.62 C 229.48 312.77 229.71 311.06 229.82 310.21 L 228.59 310.96 C 228.20 303.43 227.45 295.71 229.84 288.42 L 230.82 288.63 L 230.10 287.16 L 231.45 287.67 C 231.48 286.84 231.53 285.17 231.56 284.34 L 232.91 284.75 L 232.24 283.25 L 233.74 283.65 C 233.67 283.11 233.53 282.02 233.46 281.48 C 233.98 281.52 235.04 281.60 235.56 281.63 L 235.28 280.20 L 236.74 280.49 C 236.61 280.00 236.37 279.01 236.25 278.52 L 237.84 278.63 L 237.48 277.19 C 237.97 277.34 238.97 277.64 239.46 277.80 C 239.48 277.23 239.53 276.09 239.55 275.52 C 240.39 275.53 242.08 275.56 242.92 275.57 L 240.94 274.10 L 243.46 274.82 L 243.82 272.96 C 244.22 273.32 245.01 274.04 245.41 274.40 L 245.41 272.36 L 246.93 272.30 C 248.43 271.76 250.01 271.54 251.58 271.23 L 251.35 270.32 C 252.13 270.37 253.69 270.48 254.47 270.54 Z" fill="#fdc10c" opacity="1.00" stroke="#fdc10c" stroke-width="0.25"/>
</svg>