<?xml version="1.0" encoding="UTF-8" standalone="no"?>
<!-- Created with Inkscape (http://www.inkscape.org/) -->

<svg
   width="190.29436mm"
   height="159.51158mm"
   viewBox="0 0 190.29436 159.51158"
   version="1.1"
   id="svg5"
   xmlns="http://www.w3.org/2000/svg"
   xmlns:svg="http://www.w3.org/2000/svg">
  <defs
     id="defs2" />
  <g
     id="layer1"
     transform="translate(-9.8401684,-71.53026)">
    <g
       id="g21"
       transform="translate(5.574246,5.2238841)"
       style="fill:#ffffff">
      <path
         style="fill:#ffffff;fill-opacity:1;stroke-width:0.264583"
         d="m 140.46928,218.21121 c -0.3291,-0.41964 -0.31975,-0.429 0.0999,-0.0999 0.25466,0.19972 0.46302,0.40808 0.46302,0.46302 0,0.21776 -0.21727,0.0776 -0.56292,-0.36313 z M 5.1686646,217.35132 c 0.2633901,-0.29104 0.5384218,-0.52917 0.6111822,-0.52917 0.07276,0 -0.083209,0.23813 -0.3465989,0.52917 -0.26339,0.29104 -0.5384217,0.52916 -0.6111821,0.52916 -0.07276,0 0.083209,-0.23812 0.3465988,-0.52916 z m 32.7958834,-27.58281 -1.045885,-1.12448 1.124479,1.04588 c 0.618464,0.57524 1.124479,1.08125 1.124479,1.12448 0,0.20018 -0.230412,-1.3e-4 -1.203073,-1.04588 z m -1.741093,-1.71979 c -0.329108,-0.41965 -0.319749,-0.42901 0.0999,-0.0999 0.440729,0.34564 0.580887,0.56292 0.363124,0.56292 -0.05494,0 -0.2633,-0.20836 -0.46302,-0.46302 z M 19.00968,180.12891 c 0.190994,-0.0764 0.419197,-0.067 0.507118,0.0209 0.08792,0.0879 -0.06835,0.15045 -0.347265,0.13896 -0.308226,-0.0127 -0.370919,-0.0754 -0.159853,-0.15985 z m 128.90169,-7.62446 c 0.34177,-0.36381 0.68094,-0.66146 0.7537,-0.66146 0.0728,0 -0.14735,0.29765 -0.48912,0.66146 -0.34178,0.3638 -0.68094,0.66145 -0.7537,0.66145 -0.0728,0 0.14734,-0.29765 0.48912,-0.66145 z M 22.691409,163.71453 c 0.469697,-0.0584 1.303134,-0.0594 1.852084,-0.002 0.548947,0.0573 0.16465,0.1051 -0.853996,0.10628 -1.018646,10e-4 -1.467787,-0.0457 -0.998088,-0.10414 z M 139.20101,143.9074 c 0.0127,-0.30823 0.0754,-0.37092 0.15985,-0.15985 0.0764,0.19099 0.067,0.4192 -0.0209,0.50711 -0.0879,0.0879 -0.15045,-0.0684 -0.13896,-0.34726 z m 36.55299,-3.54983 c 0,-0.50932 0.0545,-0.71768 0.121,-0.46302 0.0666,0.25466 0.0666,0.67138 0,0.92604 -0.0666,0.25466 -0.121,0.0463 -0.121,-0.46302 z m -73.66516,-21.61199 c 0.191,-0.0764 0.4192,-0.067 0.50712,0.0209 0.0879,0.0879 -0.0684,0.15045 -0.34726,0.13896 -0.30823,-0.0127 -0.37092,-0.0754 -0.15986,-0.15985 z"
         id="path35" />
      <path
         style="fill:#ffffff;fill-opacity:1;stroke-width:0.264583"
         d="m 139.67553,217.41746 c -0.3291,-0.41964 -0.31975,-0.429 0.0999,-0.0999 0.44073,0.34564 0.58089,0.56291 0.36312,0.56291 -0.0549,0 -0.2633,-0.20835 -0.46302,-0.46302 z M 21.10981,163.73026 c 0.181901,-0.0734 0.479557,-0.0734 0.661458,0 0.181901,0.0734 0.03307,0.13345 -0.330729,0.13345 -0.363802,0 -0.51263,-0.06 -0.330729,-0.13345 z m 4.514453,-0.005 c 0.190994,-0.0764 0.419197,-0.067 0.507118,0.0209 0.08792,0.0879 -0.06835,0.15045 -0.347265,0.13897 -0.308226,-0.0127 -0.370919,-0.0754 -0.159853,-0.15985 z M 139.20101,140.20324 c 0.0127,-0.30823 0.0754,-0.37092 0.15985,-0.15985 0.0764,0.19099 0.067,0.4192 -0.0209,0.50712 -0.0879,0.0879 -0.15045,-0.0684 -0.13896,-0.34727 z M 117.9797,106.02789 c -0.32911,-0.41965 -0.31975,-0.42901 0.0999,-0.0999 0.44073,0.34564 0.58088,0.56292 0.36312,0.56292 -0.0549,0 -0.2633,-0.20836 -0.46302,-0.46302 z m -16.29923,-7.393253 c 0.25743,-0.06708 0.61461,-0.06267 0.79375,0.0098 0.17913,0.07248 -0.0315,0.127362 -0.46806,0.12197 -0.43656,-0.0054 -0.58313,-0.06469 -0.32569,-0.131773 z"
         id="path33" />
      <path
         style="fill:#ffffff;fill-opacity:1;stroke-width:0.264583"
         d="m 140.57421,193.62005 c 0.25744,-0.0671 0.61462,-0.0627 0.79375,0.01 0.17913,0.0725 -0.0315,0.12737 -0.46805,0.12198 -0.43656,-0.005 -0.58313,-0.0647 -0.3257,-0.13178 z m 7.88721,-36.74807 c 0.0127,-0.30822 0.0754,-0.37092 0.15985,-0.15985 0.0764,0.19099 0.067,0.4192 -0.0209,0.50712 -0.0879,0.0879 -0.15046,-0.0684 -0.13897,-0.34727 z m -9.20563,-15.0592 c 0.002,-0.7276 0.0534,-0.99386 0.11419,-0.59167 0.0608,0.40218 0.0592,0.99749 -0.004,1.32291 -0.0628,0.32542 -0.11256,-0.004 -0.11058,-0.73124 z M 74.378092,121.15323 c 0.0127,-0.30822 0.07539,-0.37092 0.15985,-0.15985 0.07643,0.19099 0.06703,0.4192 -0.02088,0.50712 -0.08792,0.0879 -0.150453,-0.0684 -0.138965,-0.34727 z M 175.48941,100.93466 c 0,-0.50933 0.0545,-0.71769 0.12101,-0.46302 0.0665,0.25466 0.0665,0.67138 0,0.92604 -0.0666,0.25466 -0.12101,0.0463 -0.12101,-0.46302 z m -74.72348,-2.297409 c 0.19099,-0.07643 0.4192,-0.06703 0.50711,0.02088 0.0879,0.08792 -0.0683,0.150452 -0.34726,0.138964 -0.30823,-0.0127 -0.37092,-0.07539 -0.15985,-0.159851 z m 2.11666,0 c 0.191,-0.07643 0.4192,-0.06703 0.50712,0.02088 0.0879,0.08792 -0.0683,0.150452 -0.34726,0.138964 -0.30823,-0.0127 -0.37092,-0.07539 -0.15986,-0.159851 z"
         id="path31" />
      <path
         style="fill:#ffffff;fill-opacity:1;stroke-width:0.264583"
         d="m 111.59731,191.50001 c 0.32742,-0.0631 0.8632,-0.0631 1.19062,0 0.32742,0.0631 0.0595,0.11466 -0.59531,0.11466 -0.65485,0 -0.92274,-0.0516 -0.59531,-0.11466 z m 57.6957,-2.11068 c 0.19099,-0.0764 0.4192,-0.067 0.50711,0.0209 0.0879,0.0879 -0.0683,0.15045 -0.34726,0.13896 -0.30823,-0.0127 -0.37092,-0.0754 -0.15985,-0.15985 z m -20.8009,-33.55363 c 0.005,-0.43657 0.0647,-0.58313 0.13178,-0.3257 0.0671,0.25743 0.0627,0.61462 -0.01,0.79375 -0.0725,0.17913 -0.12736,-0.0315 -0.12197,-0.46805 z m -8.76194,-38.65122 c 0.0127,-0.30822 0.0754,-0.37092 0.15985,-0.15985 0.0764,0.19099 0.067,0.4192 -0.0209,0.50712 -0.0879,0.0879 -0.15046,-0.0684 -0.13897,-0.34727 z M 88.247827,104.10966 c 0.26339,-0.29104 0.538422,-0.52917 0.611182,-0.52917 0.07276,0 -0.08321,0.23813 -0.346598,0.52917 -0.263391,0.29104 -0.538422,0.52916 -0.611183,0.52916 -0.07276,0 0.08321,-0.23812 0.346599,-0.52916 z M 155.78272,80.386513 c 0.1819,-0.0734 0.47956,-0.0734 0.66146,0 0.1819,0.0734 0.0331,0.133453 -0.33073,0.133453 -0.3638,0 -0.51263,-0.06005 -0.33073,-0.133453 z"
         id="path29" />
      <path
         style="fill:#ffffff;fill-opacity:1;stroke-width:0.264583"
         d="m 85.700535,200.21955 c -0.329107,-0.41965 -0.319749,-0.42901 0.0999,-0.0999 0.44073,0.34565 0.580888,0.56292 0.363125,0.56292 -0.05494,0 -0.2633,-0.20836 -0.463021,-0.46302 z m 24.446595,-8.71617 c 0.25743,-0.0671 0.61462,-0.0627 0.79375,0.01 0.17913,0.0725 -0.0315,0.12736 -0.46805,0.12197 -0.43657,-0.005 -0.58313,-0.0647 -0.3257,-0.13177 z m 3.43959,0 c 0.25743,-0.0671 0.61461,-0.0627 0.79375,0.01 0.17913,0.0725 -0.0315,0.12736 -0.46806,0.12197 -0.43656,-0.005 -0.58313,-0.0647 -0.32569,-0.13177 z m 57.82295,-2.11405 c 0.191,-0.0764 0.4192,-0.067 0.50712,0.0209 0.0879,0.0879 -0.0683,0.15045 -0.34726,0.13896 -0.30823,-0.0127 -0.37092,-0.0754 -0.15986,-0.15985 z M 35.149262,187.27266 c 0.190995,-0.0764 0.419201,-0.067 0.507119,0.0209 0.08792,0.0879 -0.06835,0.15045 -0.347266,0.13896 -0.308226,-0.0127 -0.370919,-0.0754 -0.159853,-0.15985 z m -11.129036,-6.89215 c 0.618464,-0.0557 1.630495,-0.0557 2.248958,0 0.618464,0.0557 0.112448,0.10128 -1.124479,0.10128 -1.236927,0 -1.742942,-0.0456 -1.124479,-0.10128 z m -3.307291,-9.24907 c 0.254661,-0.0666 0.67138,-0.0666 0.926041,0 0.254662,0.0666 0.0463,0.121 -0.46302,0.121 -0.509323,0 -0.717683,-0.0545 -0.463021,-0.121 z m 4.911328,0.002 c 0.190994,-0.0764 0.419197,-0.067 0.507118,0.0209 0.08792,0.0879 -0.06835,0.15045 -0.347265,0.13896 -0.308226,-0.0127 -0.370919,-0.0754 -0.159853,-0.15985 z m 52.966273,-2.82951 c 0,-0.0549 0.208359,-0.2633 0.463021,-0.46302 0.419645,-0.32911 0.429003,-0.31975 0.0999,0.0999 -0.345644,0.44073 -0.562917,0.58089 -0.562917,0.36313 z m 94.128604,-0.6164 c 0.32912,-0.0633 0.80537,-0.0609 1.05833,0.005 0.25297,0.0662 -0.0163,0.11801 -0.5984,0.11507 -0.58208,-0.003 -0.78905,-0.0571 -0.45993,-0.12041 z m -40.60349,-26.00662 c 0,-0.80037 0.0496,-1.12779 0.11022,-0.72761 0.0606,0.40019 0.0606,1.05503 0,1.45521 -0.0606,0.40018 -0.11022,0.0728 -0.11022,-0.7276 z M 106.92184,114.0099 c 0.0127,-0.30822 0.0754,-0.37092 0.15985,-0.15985 0.0764,0.191 0.067,0.4192 -0.0209,0.50712 -0.0879,0.0879 -0.15046,-0.0684 -0.13897,-0.34727 z"
         id="path27" />
      <path
         style="fill:#ffffff;fill-opacity:1;stroke-width:0.264583"
         d="m 132.58642,202.11573 c 0.0127,-0.30823 0.0754,-0.37092 0.15985,-0.15985 0.0764,0.19099 0.067,0.4192 -0.0209,0.50711 -0.0879,0.0879 -0.15046,-0.0683 -0.13897,-0.34726 z m 19.14476,-3.35139 -0.77711,-0.8599 0.8599,0.77711 c 0.80154,0.72437 0.98151,0.94269 0.7771,0.94269 -0.0455,0 -0.43248,-0.38696 -0.85989,-0.8599 z M 40.650084,192.52458 c -0.07495,-0.12127 0.03185,-0.22048 0.237329,-0.22048 0.205478,0 0.312277,0.0992 0.237328,0.22048 -0.07494,0.12127 -0.181744,0.22049 -0.237328,0.22049 -0.05558,0 -0.162383,-0.0992 -0.237329,-0.22049 z m 67.904516,-1.02023 c 0.25466,-0.0665 0.67138,-0.0665 0.92604,0 0.25466,0.0666 0.0463,0.121 -0.46302,0.121 -0.50933,0 -0.71768,-0.0545 -0.46302,-0.121 z m 62.06132,-2.11502 c 0.191,-0.0764 0.4192,-0.067 0.50712,0.0209 0.0879,0.0879 -0.0684,0.15045 -0.34726,0.13896 -0.30823,-0.0127 -0.37092,-0.0754 -0.15986,-0.15985 z M 20.332596,187.53725 c 0.190995,-0.0764 0.419198,-0.067 0.507119,0.0209 0.08792,0.0879 -0.06835,0.15045 -0.347266,0.13897 -0.308226,-0.0127 -0.370919,-0.0754 -0.159853,-0.15985 z M 154.4598,181.45734 c 0.1819,-0.0734 0.47956,-0.0734 0.66146,0 0.1819,0.0734 0.0331,0.13345 -0.33073,0.13345 -0.3638,0 -0.51263,-0.06 -0.33073,-0.13345 z M 22.449263,180.3935 c 0.190994,-0.0764 0.419198,-0.067 0.507119,0.0209 0.08792,0.0879 -0.06835,0.15046 -0.347266,0.13897 -0.308226,-0.0127 -0.370919,-0.0754 -0.159853,-0.15985 z m 5.147873,-0.003 c 0.257432,-0.0671 0.614619,-0.0627 0.79375,0.01 0.179131,0.0725 -0.03149,0.12736 -0.468056,0.12197 -0.436562,-0.005 -0.583126,-0.0647 -0.325694,-0.13178 z m 91.210064,-6.53109 c 0,-0.0549 0.20836,-0.2633 0.46302,-0.46302 0.41965,-0.32911 0.429,-0.31975 0.0999,0.0999 -0.34565,0.44073 -0.56292,0.58089 -0.56292,0.36313 z m 2.27888,-2.32977 c 0.0764,-0.12364 0.24977,-0.1563 0.38524,-0.0726 0.34617,0.21395 0.30719,0.29738 -0.13894,0.29738 -0.21188,0 -0.32271,-0.10116 -0.2463,-0.2248 z m -98.394671,-0.40713 c 0.469697,-0.0584 1.303134,-0.0594 1.852084,-0.002 0.548947,0.0573 0.16465,0.10509 -0.853996,0.10627 -1.018646,0.001 -1.467787,-0.0457 -0.998088,-0.10414 z M 144.6226,170.28547 c -0.0797,-0.12904 0.0621,-0.39693 0.31512,-0.59532 0.40644,-0.31863 0.4218,-0.31158 0.13167,0.0605 -0.18064,0.23167 -0.25009,0.49956 -0.15434,0.59532 0.0957,0.0958 0.10175,0.17409 0.0133,0.17409 -0.0884,0 -0.22602,-0.10557 -0.30577,-0.2346 z M 76.606161,160.20132 c 0.26339,-0.29104 0.538422,-0.52917 0.611182,-0.52917 0.07276,0 -0.08321,0.23813 -0.346599,0.52917 -0.26339,0.29104 -0.538421,0.52917 -0.611182,0.52917 -0.07276,0 0.08321,-0.23813 0.346599,-0.52917 z m -10.054166,-6.87917 c 0.568388,-0.58208 1.092967,-1.05833 1.165728,-1.05833 0.07276,0 -0.332756,0.47625 -0.901145,1.05833 -0.568388,0.58209 -1.092967,1.05834 -1.165727,1.05834 -0.07276,0 0.332755,-0.47625 0.901144,-1.05834 z m 65.505265,-9.94392 c 0.0127,-0.30822 0.0754,-0.37092 0.15985,-0.15985 0.0764,0.19099 0.067,0.4192 -0.0209,0.50712 -0.0879,0.0879 -0.15045,-0.0684 -0.13896,-0.34727 z m -32.78745,-9.63524 c 0,-0.3638 0.06005,-0.51263 0.133453,-0.33073 0.0734,0.1819 0.0734,0.47956 0,0.66146 -0.0734,0.1819 -0.133453,0.0331 -0.133453,-0.33073 z m 6.04364,-16.23948 c 0,-0.0549 0.20836,-0.2633 0.46302,-0.46302 0.41965,-0.32911 0.42901,-0.31975 0.0999,0.0999 -0.34565,0.44073 -0.56292,0.58088 -0.56292,0.36312 z M 86.952165,105.21209 c -0.07495,-0.12127 0.03185,-0.22049 0.237329,-0.22049 0.205478,0 0.312277,0.0992 0.237329,0.22049 -0.07495,0.12126 -0.181745,0.22048 -0.237329,0.22048 -0.05558,0 -0.162383,-0.0992 -0.237329,-0.22048 z m 92.200925,-6.283856 c 0.0127,-0.308226 0.0754,-0.370919 0.15985,-0.159853 0.0764,0.190995 0.067,0.419201 -0.0209,0.507119 -0.0879,0.08792 -0.15045,-0.06835 -0.13896,-0.347266 z m -7.049,-16.580555 -0.7771,-0.859896 0.8599,0.777105 c 0.47294,0.427408 0.85989,0.814361 0.85989,0.859896 0,0.204406 -0.21831,0.02445 -0.94269,-0.777105 z m -23.184,-15.989593 c 0.19099,-0.07643 0.4192,-0.06703 0.50712,0.02088 0.0879,0.08792 -0.0684,0.150453 -0.34727,0.138965 -0.30822,-0.0127 -0.37092,-0.07539 -0.15985,-0.159851 z"
         id="path25" />
      <path
         style="fill:#ffffff;fill-opacity:1;stroke-width:0.264583"
         d="m 155.58428,225.28214 c -7.84649,-1.68484 -14.1311,-5.36199 -18.21806,-10.65945 -1.525,-1.97668 -3.40956,-5.33385 -3.88944,-6.92866 -1.01343,-3.36797 -0.94848,-7.24523 0.15768,-9.41348 0.30553,-0.59888 0.49292,-1.25194 0.41644,-1.45126 -0.2057,-0.53603 -3.90279,-2.30417 -6.77703,-3.24111 -8.36216,-2.72589 -20.25854,-2.78291 -35.901899,-0.17208 l -0.844605,0.14096 0.646168,1.71671 c 0.781391,2.07597 0.802489,2.74221 0.128659,4.06303 -0.522946,1.02506 -1.975787,1.87494 -3.205152,1.87494 -0.805106,0 -2.144553,-0.76924 -1.933651,-1.11049 0.109288,-0.17683 0.06159,-0.21988 -0.119566,-0.10792 -0.41384,0.25576 -1.24701,-1.17268 -1.951418,-3.34566 -0.318421,-0.98226 -0.704337,-1.7849 -0.857594,-1.78364 -2.447491,0.0201 -27.995572,5.26914 -28.603134,5.8767 -0.05812,0.0581 0.129632,0.72493 0.417221,1.4818 0.632198,1.66381 0.647716,2.15172 0.104307,3.27971 -0.599964,1.24538 -1.585325,1.87451 -3.13485,2.00154 -1.731814,0.14198 -2.478743,-0.42214 -3.615012,-2.73023 -0.462934,-0.94035 -0.980554,-1.70973 -1.150265,-1.70973 -0.704311,0 -5.861831,1.91309 -9.937541,3.68614 -7.810947,3.39801 -15.293413,7.52152 -22.313846,12.29693 -6.7301212,4.57793 -7.1858183,4.78444 -8.9401275,4.05145 -1.6773074,-0.70083 -2.3358844,-3.17616 -1.2979425,-4.87846 0.6122431,-1.00413 3.074855,-2.86574 8.26911,-6.25104 8.73199,-5.69097 19.031126,-10.8903 27.664173,-13.96574 1.778267,-0.63348 3.233216,-1.27863 3.233216,-1.43364 0,-0.15502 -0.659982,-1.08197 -1.466628,-2.05991 -0.86991,-1.05463 -1.390898,-1.90986 -1.280496,-2.102 0.10237,-0.17817 0.08373,-0.23071 -0.04143,-0.11675 -0.125159,0.11395 -1.42417,-0.98087 -2.886691,-2.43293 l -2.659132,-2.64011 -3.968749,0.27768 c -6.871705,0.48078 -17.542179,-0.10352 -19.422631,-1.06356 -1.846627,-0.94277 -2.4900303,-3.76478 -1.206209,-5.29051 1.043303,-1.2399 2.027989,-1.44294 5.200409,-1.07229 3.590629,0.41951 14.461683,0.42593 17.809681,0.0105 15.293667,-1.8976 27.772191,-6.961 37.766355,-15.32441 9.977001,-8.34906 17.250156,-19.14247 19.878344,-29.49961 0.346988,-1.3674 0.826037,-2.89744 1.064553,-3.40008 1.184225,-2.49556 4.957842,-2.49522 6.142165,5.3e-4 0.663487,1.3982 0.360325,3.61475 -1.074608,7.85693 -2.780242,8.21941 -6.603188,14.75129 -13.038013,22.27675 -3.079374,3.60129 -5.276196,5.70465 -5.690626,5.44852 -0.155681,-0.0962 -0.209764,-0.0564 -0.120182,0.0886 0.298868,0.48358 -3.833426,3.91624 -8.283199,6.88078 -5.668488,3.77648 -12.037985,6.87608 -18.426135,8.96672 -2.738255,0.89615 -6.318279,1.85551 -7.497648,2.00919 l -0.656077,0.0855 0.982051,1.08514 c 0.540126,0.59682 0.894892,1.18146 0.788369,1.29918 -0.106527,0.11773 -0.05417,0.13417 0.116353,0.0365 0.27518,-0.15758 1.201684,0.97698 4.762955,5.8325 l 0.61977,0.84501 1.25466,-0.3668 c 5.919517,-1.73059 15.682022,-3.81362 26.65466,-5.68734 14.595363,-2.49235 19.646121,-3.66971 25.616278,-5.97129 2.71284,-1.04584 6.7214,-3.11512 8.4246,-4.34891 0.61567,-0.44599 1.28101,-0.74888 1.47853,-0.67309 0.19751,0.0758 0.29464,0.0335 0.21583,-0.094 -0.0788,-0.12751 0.48056,-0.70499 1.24303,-1.28327 0.76248,-0.57829 2.20647,-1.83866 3.20887,-2.80082 1.00241,-0.96217 1.94354,-1.67462 2.0914,-1.58324 0.15492,0.0958 0.18765,0.0348 0.0772,-0.14389 -0.11183,-0.18094 0.2678,-0.83148 0.91165,-1.56224 2.91365,-3.3069 5.64184,-8.21487 7.24082,-13.02613 4.21054,-12.66935 2.90756,-26.54275 -3.72248,-39.63495 -3.20222,-6.32335 -6.78678,-10.91452 -11.01366,-14.10652 -5.04112,-3.80687 -10.42297,-5.305753 -16.085911,-4.480036 -3.996393,0.582719 -7.190192,2.129156 -10.337061,5.005216 -0.808551,0.73898 -1.565325,1.25752 -1.681718,1.15234 -0.116393,-0.10519 -0.124669,-0.0403 -0.01839,0.14417 0.113433,0.1969 -0.12437,0.74323 -0.575828,1.32291 -0.422979,0.54313 -0.988938,1.36798 -1.257686,1.83301 -0.268748,0.46503 -0.572405,0.79373 -0.674796,0.73045 -0.102391,-0.0633 -0.170027,0.0325 -0.150302,0.21282 0.01971,0.18034 -0.34163,1.28226 -0.803008,2.44871 -1.119621,2.83061 -1.614522,5.51633 -1.927331,10.45919 -0.464743,7.34364 -1.946626,12.5206 -5.394174,18.84453 -0.766011,1.40511 -1.378862,2.24999 -1.553707,2.14193 -0.17481,-0.10804 -0.212849,-0.0557 -0.09641,0.13273 0.39752,0.6432 -4.043394,6.30319 -7.951586,10.13438 -9.152811,8.97247 -19.925903,14.64671 -32.111055,16.91304 -2.895459,0.53853 -4.147428,0.61647 -10.054166,0.62592 -7.489957,0.012 -7.821593,-0.0506 -8.91981,-1.68199 -1.093851,-1.62494 -0.581091,-4.11334 1.017992,-4.94026 0.732571,-0.37882 1.590397,-0.44319 5.393484,-0.40467 7.540466,0.0764 13.021939,-0.66393 18.647917,-2.51849 3.26096,-1.07496 8.221895,-3.41603 11.334043,-5.34856 1.213257,-0.75338 2.332982,-1.29126 2.488276,-1.19528 0.159547,0.0986 0.205682,0.0504 0.106074,-0.11073 -0.09696,-0.15687 0.212072,-0.55689 0.686724,-0.88891 3.616978,-2.53011 9.786995,-8.63101 12.146533,-12.01046 0.751999,-1.07706 1.454195,-1.90456 1.560436,-1.8389 0.106243,0.0657 0.178546,-0.0282 0.160676,-0.2085 -0.01786,-0.18033 0.655251,-1.67499 1.495827,-3.32146 2.777432,-5.44028 3.738861,-9.10427 4.164883,-15.8723 0.320207,-5.08701 0.875093,-7.9397 2.22354,-11.43127 1.618062,-4.1897 3.497222,-7.10668 6.475777,-10.052243 5.458767,-5.398288 13.619114,-8.249091 21.258437,-7.426592 1.5241,0.164095 3.64944,0.540705 4.72296,0.836914 2.54246,0.701519 7.99214,3.324622 7.74337,3.72713 -0.1155,0.186891 -0.0658,0.225383 0.13272,0.102711 0.36856,-0.227782 3.26984,1.89696 5.89684,4.31854 l 1.7669,1.62874 3.92164,-1.34949 c 7.49132,-2.57786 12.60458,-4.222973 12.73141,-4.09614 0.1733,0.173297 -0.4299,0.939184 -6.1285,7.78139 -2.71164,3.2558 -4.93024,6.02041 -4.93024,6.14358 0,0.12316 0.70492,1.50745 1.56649,3.07619 4.56126,8.30505 7.16476,18.52317 7.16476,28.11996 0,6.27724 -0.84224,11.51602 -2.79091,17.35975 -1.56278,4.68653 -5.34564,11.97967 -6.00298,11.57342 -0.17251,-0.10663 -0.20628,-0.0501 -0.0861,0.14433 0.49996,0.80895 -6.51047,8.59495 -10.37632,11.52426 -0.75963,0.57561 -1.38115,1.12544 -1.38115,1.22185 0,0.1742 3.39358,-1.00115 8.20208,-2.84074 5.7288,-2.19167 12.97083,-6.35957 16.19859,-9.32252 0.9082,-0.83369 1.63933,-1.31266 1.82682,-1.19679 0.18016,0.11135 0.24268,0.0801 0.14758,-0.0738 -0.21216,-0.34329 0.97653,-1.4725 1.26979,-1.20624 0.12167,0.11047 0.14375,0.0652 0.049,-0.1005 -0.0947,-0.16574 0.53393,-1.1444 1.39694,-2.1748 0.86302,-1.03039 1.87463,-2.39477 2.24803,-3.03193 l 0.67892,-1.15849 -0.83037,-1.82609 c -3.10672,-6.83208 0.96997,-16.26384 9.6708,-22.3742 1.01501,-0.71281 2.00645,-1.23425 2.2032,-1.15875 0.19674,0.0755 0.29549,0.0366 0.21945,-0.0865 -0.19991,-0.32346 2.44248,-1.69793 2.91536,-1.51647 0.21885,0.084 0.33341,0.0483 0.25458,-0.0792 -0.18378,-0.29736 2.82211,-1.41169 6.12041,-2.26895 3.80056,-0.98779 3.64318,-1.04114 4.07832,1.38244 0.51362,2.86075 0.45578,9.18337 -0.10712,11.70781 -0.92964,4.16917 -3.38255,10.01591 -4.13206,9.84917 -0.17973,-0.04 -0.24996,0.0516 -0.15606,0.20355 0.25812,0.41764 -1.53382,2.70008 -3.60114,4.58688 -3.88339,3.5443 -9.35656,5.19124 -12.84461,3.86508 -0.5542,-0.21071 -0.75656,-0.002 -2.36454,2.43648 -2.13238,3.23397 -5.67108,6.88834 -9.15453,9.45376 -3.34279,2.46184 -3.45831,2.63871 -1.40304,2.14821 2.24348,-0.53541 8.09021,-1.12781 11.43108,-1.15822 l 3.49358,-0.0318 0.71232,-1.67468 c 1.65175,-3.88331 5.6241,-6.68843 11.12061,-7.85296 2.44812,-0.51867 7.7849,-0.50504 10.36138,0.0265 5.02213,1.03603 10.74444,3.79296 15.13353,7.29113 l 0.87875,0.70037 -1.5625,1.77207 c -2.0574,2.33335 -5.36179,5.21576 -5.72325,4.99237 -0.1658,-0.10248 -0.21081,-0.0545 -0.10675,0.1139 0.41821,0.67667 -5.524,3.98393 -9.35854,5.20867 -2.77282,0.88564 -7.93088,1.2071 -10.88826,0.67859 -4.4,-0.78633 -7.86774,-3.01464 -9.95508,-6.39698 -0.33773,-0.54726 -0.86339,-1.01346 -1.21944,-1.08153 -1.19841,-0.22909 -9.04916,0.30136 -12.46534,0.84224 -6.04859,0.95766 -8.13069,1.354 -11.37708,2.16566 -3.40285,0.85079 -9.65542,2.80223 -9.99686,3.12005 -0.114,0.10611 0.48131,0.34515 1.32291,0.53118 4.09294,0.90477 10.09189,3.36912 12.89327,5.29652 1.09864,0.75588 1.31771,0.81574 2.05057,0.56026 1.17806,-0.41067 4.08003,-0.35233 5.8871,0.11835 2.8909,0.75298 5.09192,2.12481 7.81905,4.87338 3.89738,3.92801 6.25093,8.43751 7.46403,14.3014 0.56087,2.71109 0.72994,7.54554 0.37246,10.64948 l -0.2057,1.78593 -0.83883,-0.0265 c -0.46136,-0.0146 -1.85087,-0.24378 -3.0878,-0.50938 z M 146.3447,124.60119 c -2.2456,-0.487 -4.17634,-1.78735 -5.33361,-3.59217 -0.8606,-1.34215 -0.90466,-1.52817 -0.89949,-3.79751 0.005,-2.15817 0.0856,-2.54058 0.8442,-4.00125 2.04611,-3.9397 7.15468,-6.62889 12.17223,-6.40754 1.53026,0.0675 1.92819,0.007 1.9277,-0.29096 -7.9e-4,-0.44498 -1.41932,-7.224274 -2.91103,-13.911478 -0.5843,-2.619374 -1.48076,-6.72703 -1.99213,-9.128124 -0.51137,-2.401094 -1.47818,-6.846932 -2.14846,-9.879644 l -1.21869,-5.514017 0.52538,-0.703692 c 0.42896,-0.574545 0.73779,-0.703688 1.68274,-0.703688 1.08836,0 1.21283,0.07887 2.08795,1.322917 0.51182,0.727604 1.82702,2.215885 2.92265,3.307291 2.13507,2.126835 3.63959,3.006505 9.46893,5.536356 4.39201,1.906074 5.71034,2.773823 8.67254,5.708435 3.62843,3.59465 5.6091,7.175862 6.58501,11.90625 0.85676,4.152876 0.39201,10.998064 -0.83906,12.358394 -0.42528,0.46992 -2.09905,0.68983 -1.82053,0.23918 0.0798,-0.12909 -0.062,-0.21838 -0.31512,-0.19843 -0.38289,0.0302 -0.44941,-0.16369 -0.39611,-1.15435 0.22573,-4.19538 0.1575,-8.217522 -0.16158,-9.525003 -0.4956,-2.03087 -2.68852,-6.490289 -3.96206,-8.057075 -0.58574,-0.720609 -0.99489,-1.423615 -0.90922,-1.562232 0.0857,-0.138621 0.0342,-0.176917 -0.11433,-0.0851 -0.34312,0.212059 -1.20359,-0.714771 -0.93672,-1.008959 0.10946,-0.120661 0.0553,-0.136906 -0.12032,-0.0361 -0.18196,0.104437 -0.9787,-0.326236 -1.85208,-1.001133 -2.91677,-2.253906 -6.59976,-3.676909 -10.36701,-4.005532 l -2.17379,-0.189621 0.14835,0.630692 c 0.0816,0.346879 0.38163,1.761784 0.66675,3.144232 0.28513,1.382447 1.12198,5.251978 1.85967,8.598957 2.47561,11.232144 3.96217,18.775274 3.96492,20.118884 0.004,1.74113 -0.64693,4.19449 -1.49671,5.64481 -2.70965,4.6246 -8.5694,7.31972 -13.56097,6.23721 z m -46.08286,-6.55461 c -4.08712,-2.15612 -2.500615,-8.60987 2.12381,-8.63945 3.97883,-0.0254 6.07189,5.17809 3.15138,7.8346 -1.66948,1.51856 -3.41691,1.78517 -5.27519,0.80485 z"
         id="path23" />
    </g>
  </g>
</svg>
